<svg xmlns="http://www.w3.org/2000/svg" xmlns:xlink="http://www.w3.org/1999/xlink" width="512" zoomAndPan="magnify" viewBox="0 0 384 74.999997" height="100" preserveAspectRatio="xMidYMid meet" version="1.0"><defs><g/><clipPath id="ff7a7e61e8"><rect x="0" width="348" y="0" height="75"/></clipPath></defs><g transform="matrix(1, 0, 0, 1, 18, -0.000000000000001887)"><g clip-path="url(#ff7a7e61e8)"><g fill="#737373" fill-opacity="0.4"><g transform="translate(2.929917, 60.293415)"><g><path d="M 21.109375 0 L 11.859375 -30.15625 L 11.625 -30.15625 C 11.957031 -24.019531 12.125 -19.925781 12.125 -17.875 L 12.125 0 L 4.84375 0 L 4.84375 -38.4375 L 15.9375 -38.4375 L 25.03125 -9.046875 L 25.1875 -9.046875 L 34.828125 -38.4375 L 45.9375 -38.4375 L 45.9375 0 L 38.328125 0 L 38.328125 -18.1875 C 38.328125 -19.050781 38.335938 -20.039062 38.359375 -21.15625 C 38.390625 -22.28125 38.507812 -25.265625 38.71875 -30.109375 L 38.484375 -30.109375 L 28.578125 0 Z M 21.109375 0 "/></g></g></g><g fill="#737373" fill-opacity="0.4"><g transform="translate(53.6857, 60.293415)"><g><path d="M 16.375 -24.234375 C 14.675781 -24.234375 13.34375 -23.691406 12.375 -22.609375 C 11.414062 -21.535156 10.867188 -20.007812 10.734375 -18.03125 L 21.984375 -18.03125 C 21.941406 -20.007812 21.421875 -21.535156 20.421875 -22.609375 C 19.421875 -23.691406 18.070312 -24.234375 16.375 -24.234375 Z M 17.515625 0.53125 C 12.773438 0.53125 9.070312 -0.773438 6.40625 -3.390625 C 3.75 -6.003906 2.421875 -9.703125 2.421875 -14.484375 C 2.421875 -19.410156 3.648438 -23.21875 6.109375 -25.90625 C 8.578125 -28.601562 11.984375 -29.953125 16.328125 -29.953125 C 20.484375 -29.953125 23.71875 -28.765625 26.03125 -26.390625 C 28.34375 -24.023438 29.5 -20.757812 29.5 -16.59375 L 29.5 -12.703125 L 10.546875 -12.703125 C 10.628906 -10.421875 11.300781 -8.640625 12.5625 -7.359375 C 13.820312 -6.078125 15.59375 -5.4375 17.875 -5.4375 C 19.644531 -5.4375 21.316406 -5.617188 22.890625 -5.984375 C 24.472656 -6.359375 26.125 -6.945312 27.84375 -7.75 L 27.84375 -1.546875 C 26.4375 -0.847656 24.9375 -0.328125 23.34375 0.015625 C 21.75 0.359375 19.804688 0.53125 17.515625 0.53125 Z M 17.515625 0.53125 "/></g></g></g><g fill="#737373" fill-opacity="0.4"><g transform="translate(85.490202, 60.293415)"><g><path d="M 25.03125 0 L 23.953125 -3.765625 L 23.53125 -3.765625 C 22.664062 -2.390625 21.445312 -1.328125 19.875 -0.578125 C 18.300781 0.160156 16.503906 0.53125 14.484375 0.53125 C 11.035156 0.53125 8.429688 -0.390625 6.671875 -2.234375 C 4.921875 -4.085938 4.046875 -6.753906 4.046875 -10.234375 L 4.046875 -29.390625 L 12.0625 -29.390625 L 12.0625 -12.21875 C 12.0625 -10.101562 12.4375 -8.515625 13.1875 -7.453125 C 13.945312 -6.390625 15.148438 -5.859375 16.796875 -5.859375 C 19.046875 -5.859375 20.664062 -6.609375 21.65625 -8.109375 C 22.65625 -9.609375 23.15625 -12.09375 23.15625 -15.5625 L 23.15625 -29.390625 L 31.1875 -29.390625 L 31.1875 0 Z M 25.03125 0 "/></g></g></g><g fill="#737373" fill-opacity="0.4"><g transform="translate(120.869424, 60.293415)"><g><path d="M 24.71875 -8.734375 C 24.71875 -5.710938 23.671875 -3.410156 21.578125 -1.828125 C 19.484375 -0.253906 16.347656 0.53125 12.171875 0.53125 C 10.035156 0.53125 8.210938 0.382812 6.703125 0.09375 C 5.191406 -0.195312 3.78125 -0.625 2.46875 -1.1875 L 2.46875 -7.8125 C 3.957031 -7.101562 5.632812 -6.515625 7.5 -6.046875 C 9.375 -5.578125 11.019531 -5.34375 12.4375 -5.34375 C 15.34375 -5.34375 16.796875 -6.179688 16.796875 -7.859375 C 16.796875 -8.492188 16.601562 -9.003906 16.21875 -9.390625 C 15.832031 -9.785156 15.164062 -10.234375 14.21875 -10.734375 C 13.269531 -11.234375 12.007812 -11.816406 10.4375 -12.484375 C 8.175781 -13.429688 6.515625 -14.304688 5.453125 -15.109375 C 4.390625 -15.921875 3.617188 -16.847656 3.140625 -17.890625 C 2.660156 -18.929688 2.421875 -20.21875 2.421875 -21.75 C 2.421875 -24.351562 3.429688 -26.367188 5.453125 -27.796875 C 7.472656 -29.234375 10.34375 -29.953125 14.0625 -29.953125 C 17.601562 -29.953125 21.046875 -29.175781 24.390625 -27.625 L 21.984375 -21.84375 C 20.503906 -22.476562 19.125 -22.992188 17.84375 -23.390625 C 16.570312 -23.796875 15.269531 -24 13.9375 -24 C 11.570312 -24 10.390625 -23.359375 10.390625 -22.078125 C 10.390625 -21.359375 10.769531 -20.734375 11.53125 -20.203125 C 12.289062 -19.679688 13.957031 -18.90625 16.53125 -17.875 C 18.832031 -16.945312 20.515625 -16.078125 21.578125 -15.265625 C 22.648438 -14.460938 23.441406 -13.535156 23.953125 -12.484375 C 24.460938 -11.429688 24.71875 -10.179688 24.71875 -8.734375 Z M 24.71875 -8.734375 "/></g></g></g><g fill="#737373" fill-opacity="0.4"><g transform="translate(147.63486, 60.293415)"><g><path d="M 28.375 0 L 25.578125 -9.15625 L 11.5625 -9.15625 L 8.78125 0 L 0 0 L 13.5625 -38.59375 L 23.53125 -38.59375 L 37.15625 0 Z M 23.640625 -15.984375 C 21.054688 -24.273438 19.601562 -28.960938 19.28125 -30.046875 C 18.957031 -31.140625 18.726562 -32 18.59375 -32.625 C 18.007812 -30.382812 16.351562 -24.835938 13.625 -15.984375 Z M 23.640625 -15.984375 "/></g></g></g><g fill="#737373" fill-opacity="0.4"><g transform="translate(184.775163, 60.293415)"><g><path d="M 31.34375 0 L 23.3125 0 L 23.3125 -17.171875 C 23.3125 -19.285156 22.9375 -20.875 22.1875 -21.9375 C 21.4375 -23 20.238281 -23.53125 18.59375 -23.53125 C 16.34375 -23.53125 14.71875 -22.78125 13.71875 -21.28125 C 12.71875 -19.78125 12.21875 -17.296875 12.21875 -13.828125 L 12.21875 0 L 4.203125 0 L 4.203125 -29.390625 L 10.328125 -29.390625 L 11.40625 -25.640625 L 11.859375 -25.640625 C 12.753906 -27.054688 13.984375 -28.128906 15.546875 -28.859375 C 17.117188 -29.585938 18.90625 -29.953125 20.90625 -29.953125 C 24.320312 -29.953125 26.914062 -29.023438 28.6875 -27.171875 C 30.457031 -25.316406 31.34375 -22.648438 31.34375 -19.171875 Z M 31.34375 0 "/></g></g></g><g fill="#737373" fill-opacity="0.4"><g transform="translate(220.154385, 60.293415)"><g><path d="M 3.859375 -36.984375 C 3.859375 -39.597656 5.316406 -40.90625 8.234375 -40.90625 C 11.140625 -40.90625 12.59375 -39.597656 12.59375 -36.984375 C 12.59375 -35.742188 12.226562 -34.773438 11.5 -34.078125 C 10.769531 -33.390625 9.679688 -33.046875 8.234375 -33.046875 C 5.316406 -33.046875 3.859375 -34.359375 3.859375 -36.984375 Z M 12.21875 0 L 4.203125 0 L 4.203125 -29.390625 L 12.21875 -29.390625 Z M 12.21875 0 "/></g></g></g><g fill="#737373" fill-opacity="0.4"><g transform="translate(236.582335, 60.293415)"><g><path d="M 30.53125 0 L 22.5 0 L 22.5 -17.171875 C 22.5 -19.285156 22.144531 -20.875 21.4375 -21.9375 C 20.726562 -23 19.613281 -23.53125 18.09375 -23.53125 C 16.039062 -23.53125 14.546875 -22.773438 13.609375 -21.265625 C 12.679688 -19.765625 12.21875 -17.285156 12.21875 -13.828125 L 12.21875 0 L 4.203125 0 L 4.203125 -29.390625 L 10.328125 -29.390625 L 11.40625 -25.640625 L 11.859375 -25.640625 C 12.648438 -26.984375 13.789062 -28.035156 15.28125 -28.796875 C 16.769531 -29.566406 18.476562 -29.953125 20.40625 -29.953125 C 24.800781 -29.953125 27.78125 -28.515625 29.34375 -25.640625 L 30.046875 -25.640625 C 30.835938 -27.003906 32 -28.0625 33.53125 -28.8125 C 35.0625 -29.570312 36.789062 -29.953125 38.71875 -29.953125 C 42.050781 -29.953125 44.570312 -29.09375 46.28125 -27.375 C 47.988281 -25.664062 48.84375 -22.929688 48.84375 -19.171875 L 48.84375 0 L 40.796875 0 L 40.796875 -17.171875 C 40.796875 -19.285156 40.441406 -20.875 39.734375 -21.9375 C 39.023438 -23 37.910156 -23.53125 36.390625 -23.53125 C 34.421875 -23.53125 32.953125 -22.828125 31.984375 -21.421875 C 31.015625 -20.023438 30.53125 -17.800781 30.53125 -14.75 Z M 30.53125 0 "/></g></g></g><g fill="#737373" fill-opacity="0.4"><g transform="translate(289.440895, 60.293415)"><g><path d="M 16.375 -24.234375 C 14.675781 -24.234375 13.34375 -23.691406 12.375 -22.609375 C 11.414062 -21.535156 10.867188 -20.007812 10.734375 -18.03125 L 21.984375 -18.03125 C 21.941406 -20.007812 21.421875 -21.535156 20.421875 -22.609375 C 19.421875 -23.691406 18.070312 -24.234375 16.375 -24.234375 Z M 17.515625 0.53125 C 12.773438 0.53125 9.070312 -0.773438 6.40625 -3.390625 C 3.75 -6.003906 2.421875 -9.703125 2.421875 -14.484375 C 2.421875 -19.410156 3.648438 -23.21875 6.109375 -25.90625 C 8.578125 -28.601562 11.984375 -29.953125 16.328125 -29.953125 C 20.484375 -29.953125 23.71875 -28.765625 26.03125 -26.390625 C 28.34375 -24.023438 29.5 -20.757812 29.5 -16.59375 L 29.5 -12.703125 L 10.546875 -12.703125 C 10.628906 -10.421875 11.300781 -8.640625 12.5625 -7.359375 C 13.820312 -6.078125 15.59375 -5.4375 17.875 -5.4375 C 19.644531 -5.4375 21.316406 -5.617188 22.890625 -5.984375 C 24.472656 -6.359375 26.125 -6.945312 27.84375 -7.75 L 27.84375 -1.546875 C 26.4375 -0.847656 24.9375 -0.328125 23.34375 0.015625 C 21.75 0.359375 19.804688 0.53125 17.515625 0.53125 Z M 17.515625 0.53125 "/></g></g></g><g fill="#737373" fill-opacity="0.4"><g transform="translate(321.245396, 60.293415)"><g><path d="M 24.71875 -8.734375 C 24.71875 -5.710938 23.671875 -3.410156 21.578125 -1.828125 C 19.484375 -0.253906 16.347656 0.53125 12.171875 0.53125 C 10.035156 0.53125 8.210938 0.382812 6.703125 0.09375 C 5.191406 -0.195312 3.78125 -0.625 2.46875 -1.1875 L 2.46875 -7.8125 C 3.957031 -7.101562 5.632812 -6.515625 7.5 -6.046875 C 9.375 -5.578125 11.019531 -5.34375 12.4375 -5.34375 C 15.34375 -5.34375 16.796875 -6.179688 16.796875 -7.859375 C 16.796875 -8.492188 16.601562 -9.003906 16.21875 -9.390625 C 15.832031 -9.785156 15.164062 -10.234375 14.21875 -10.734375 C 13.269531 -11.234375 12.007812 -11.816406 10.4375 -12.484375 C 8.175781 -13.429688 6.515625 -14.304688 5.453125 -15.109375 C 4.390625 -15.921875 3.617188 -16.847656 3.140625 -17.890625 C 2.660156 -18.929688 2.421875 -20.21875 2.421875 -21.75 C 2.421875 -24.351562 3.429688 -26.367188 5.453125 -27.796875 C 7.472656 -29.234375 10.34375 -29.953125 14.0625 -29.953125 C 17.601562 -29.953125 21.046875 -29.175781 24.390625 -27.625 L 21.984375 -21.84375 C 20.503906 -22.476562 19.125 -22.992188 17.84375 -23.390625 C 16.570312 -23.796875 15.269531 -24 13.9375 -24 C 11.570312 -24 10.390625 -23.359375 10.390625 -22.078125 C 10.390625 -21.359375 10.769531 -20.734375 11.53125 -20.203125 C 12.289062 -19.679688 13.957031 -18.90625 16.53125 -17.875 C 18.832031 -16.945312 20.515625 -16.078125 21.578125 -15.265625 C 22.648438 -14.460938 23.441406 -13.535156 23.953125 -12.484375 C 24.460938 -11.429688 24.71875 -10.179688 24.71875 -8.734375 Z M 24.71875 -8.734375 "/></g></g></g><g fill="#ff3131" fill-opacity="1"><g transform="translate(0.550419, 57.913918)"><g><path d="M 21.109375 0 L 11.859375 -30.15625 L 11.625 -30.15625 C 11.957031 -24.019531 12.125 -19.925781 12.125 -17.875 L 12.125 0 L 4.84375 0 L 4.84375 -38.4375 L 15.9375 -38.4375 L 25.03125 -9.046875 L 25.1875 -9.046875 L 34.828125 -38.4375 L 45.9375 -38.4375 L 45.9375 0 L 38.328125 0 L 38.328125 -18.1875 C 38.328125 -19.050781 38.335938 -20.039062 38.359375 -21.15625 C 38.390625 -22.28125 38.507812 -25.265625 38.71875 -30.109375 L 38.484375 -30.109375 L 28.578125 0 Z M 21.109375 0 "/></g></g></g><g fill="#ff3131" fill-opacity="1"><g transform="translate(51.306203, 57.913918)"><g><path d="M 16.375 -24.234375 C 14.675781 -24.234375 13.34375 -23.691406 12.375 -22.609375 C 11.414062 -21.535156 10.867188 -20.007812 10.734375 -18.03125 L 21.984375 -18.03125 C 21.941406 -20.007812 21.421875 -21.535156 20.421875 -22.609375 C 19.421875 -23.691406 18.070312 -24.234375 16.375 -24.234375 Z M 17.515625 0.53125 C 12.773438 0.53125 9.070312 -0.773438 6.40625 -3.390625 C 3.75 -6.003906 2.421875 -9.703125 2.421875 -14.484375 C 2.421875 -19.410156 3.648438 -23.21875 6.109375 -25.90625 C 8.578125 -28.601562 11.984375 -29.953125 16.328125 -29.953125 C 20.484375 -29.953125 23.71875 -28.765625 26.03125 -26.390625 C 28.34375 -24.023438 29.5 -20.757812 29.5 -16.59375 L 29.5 -12.703125 L 10.546875 -12.703125 C 10.628906 -10.421875 11.300781 -8.640625 12.5625 -7.359375 C 13.820312 -6.078125 15.59375 -5.4375 17.875 -5.4375 C 19.644531 -5.4375 21.316406 -5.617188 22.890625 -5.984375 C 24.472656 -6.359375 26.125 -6.945312 27.84375 -7.75 L 27.84375 -1.546875 C 26.4375 -0.847656 24.9375 -0.328125 23.34375 0.015625 C 21.75 0.359375 19.804688 0.53125 17.515625 0.53125 Z M 17.515625 0.53125 "/></g></g></g><g fill="#ff3131" fill-opacity="1"><g transform="translate(83.110704, 57.913918)"><g><path d="M 25.03125 0 L 23.953125 -3.765625 L 23.53125 -3.765625 C 22.664062 -2.390625 21.445312 -1.328125 19.875 -0.578125 C 18.300781 0.160156 16.503906 0.53125 14.484375 0.53125 C 11.035156 0.53125 8.429688 -0.390625 6.671875 -2.234375 C 4.921875 -4.085938 4.046875 -6.753906 4.046875 -10.234375 L 4.046875 -29.390625 L 12.0625 -29.390625 L 12.0625 -12.21875 C 12.0625 -10.101562 12.4375 -8.515625 13.1875 -7.453125 C 13.945312 -6.390625 15.148438 -5.859375 16.796875 -5.859375 C 19.046875 -5.859375 20.664062 -6.609375 21.65625 -8.109375 C 22.65625 -9.609375 23.15625 -12.09375 23.15625 -15.5625 L 23.15625 -29.390625 L 31.1875 -29.390625 L 31.1875 0 Z M 25.03125 0 "/></g></g></g><g fill="#ff3131" fill-opacity="1"><g transform="translate(118.489926, 57.913918)"><g><path d="M 24.71875 -8.734375 C 24.71875 -5.710938 23.671875 -3.410156 21.578125 -1.828125 C 19.484375 -0.253906 16.347656 0.53125 12.171875 0.53125 C 10.035156 0.53125 8.210938 0.382812 6.703125 0.09375 C 5.191406 -0.195312 3.78125 -0.625 2.46875 -1.1875 L 2.46875 -7.8125 C 3.957031 -7.101562 5.632812 -6.515625 7.5 -6.046875 C 9.375 -5.578125 11.019531 -5.34375 12.4375 -5.34375 C 15.34375 -5.34375 16.796875 -6.179688 16.796875 -7.859375 C 16.796875 -8.492188 16.601562 -9.003906 16.21875 -9.390625 C 15.832031 -9.785156 15.164062 -10.234375 14.21875 -10.734375 C 13.269531 -11.234375 12.007812 -11.816406 10.4375 -12.484375 C 8.175781 -13.429688 6.515625 -14.304688 5.453125 -15.109375 C 4.390625 -15.921875 3.617188 -16.847656 3.140625 -17.890625 C 2.660156 -18.929688 2.421875 -20.21875 2.421875 -21.75 C 2.421875 -24.351562 3.429688 -26.367188 5.453125 -27.796875 C 7.472656 -29.234375 10.34375 -29.953125 14.0625 -29.953125 C 17.601562 -29.953125 21.046875 -29.175781 24.390625 -27.625 L 21.984375 -21.84375 C 20.503906 -22.476562 19.125 -22.992188 17.84375 -23.390625 C 16.570312 -23.796875 15.269531 -24 13.9375 -24 C 11.570312 -24 10.390625 -23.359375 10.390625 -22.078125 C 10.390625 -21.359375 10.769531 -20.734375 11.53125 -20.203125 C 12.289062 -19.679688 13.957031 -18.90625 16.53125 -17.875 C 18.832031 -16.945312 20.515625 -16.078125 21.578125 -15.265625 C 22.648438 -14.460938 23.441406 -13.535156 23.953125 -12.484375 C 24.460938 -11.429688 24.71875 -10.179688 24.71875 -8.734375 Z M 24.71875 -8.734375 "/></g></g></g><g fill="#545454" fill-opacity="1"><g transform="translate(145.255362, 57.913918)"><g><path d="M 28.375 0 L 25.578125 -9.15625 L 11.5625 -9.15625 L 8.78125 0 L 0 0 L 13.5625 -38.59375 L 23.53125 -38.59375 L 37.15625 0 Z M 23.640625 -15.984375 C 21.054688 -24.273438 19.601562 -28.960938 19.28125 -30.046875 C 18.957031 -31.140625 18.726562 -32 18.59375 -32.625 C 18.007812 -30.382812 16.351562 -24.835938 13.625 -15.984375 Z M 23.640625 -15.984375 "/></g></g></g><g fill="#545454" fill-opacity="1"><g transform="translate(182.395665, 57.913918)"><g><path d="M 31.34375 0 L 23.3125 0 L 23.3125 -17.171875 C 23.3125 -19.285156 22.9375 -20.875 22.1875 -21.9375 C 21.4375 -23 20.238281 -23.53125 18.59375 -23.53125 C 16.34375 -23.53125 14.71875 -22.78125 13.71875 -21.28125 C 12.71875 -19.78125 12.21875 -17.296875 12.21875 -13.828125 L 12.21875 0 L 4.203125 0 L 4.203125 -29.390625 L 10.328125 -29.390625 L 11.40625 -25.640625 L 11.859375 -25.640625 C 12.753906 -27.054688 13.984375 -28.128906 15.546875 -28.859375 C 17.117188 -29.585938 18.90625 -29.953125 20.90625 -29.953125 C 24.320312 -29.953125 26.914062 -29.023438 28.6875 -27.171875 C 30.457031 -25.316406 31.34375 -22.648438 31.34375 -19.171875 Z M 31.34375 0 "/></g></g></g><g fill="#545454" fill-opacity="1"><g transform="translate(217.774887, 57.913918)"><g><path d="M 3.859375 -36.984375 C 3.859375 -39.597656 5.316406 -40.90625 8.234375 -40.90625 C 11.140625 -40.90625 12.59375 -39.597656 12.59375 -36.984375 C 12.59375 -35.742188 12.226562 -34.773438 11.5 -34.078125 C 10.769531 -33.390625 9.679688 -33.046875 8.234375 -33.046875 C 5.316406 -33.046875 3.859375 -34.359375 3.859375 -36.984375 Z M 12.21875 0 L 4.203125 0 L 4.203125 -29.390625 L 12.21875 -29.390625 Z M 12.21875 0 "/></g></g></g><g fill="#545454" fill-opacity="1"><g transform="translate(234.202837, 57.913918)"><g><path d="M 30.53125 0 L 22.5 0 L 22.5 -17.171875 C 22.5 -19.285156 22.144531 -20.875 21.4375 -21.9375 C 20.726562 -23 19.613281 -23.53125 18.09375 -23.53125 C 16.039062 -23.53125 14.546875 -22.773438 13.609375 -21.265625 C 12.679688 -19.765625 12.21875 -17.285156 12.21875 -13.828125 L 12.21875 0 L 4.203125 0 L 4.203125 -29.390625 L 10.328125 -29.390625 L 11.40625 -25.640625 L 11.859375 -25.640625 C 12.648438 -26.984375 13.789062 -28.035156 15.28125 -28.796875 C 16.769531 -29.566406 18.476562 -29.953125 20.40625 -29.953125 C 24.800781 -29.953125 27.78125 -28.515625 29.34375 -25.640625 L 30.046875 -25.640625 C 30.835938 -27.003906 32 -28.0625 33.53125 -28.8125 C 35.0625 -29.570312 36.789062 -29.953125 38.71875 -29.953125 C 42.050781 -29.953125 44.570312 -29.09375 46.28125 -27.375 C 47.988281 -25.664062 48.84375 -22.929688 48.84375 -19.171875 L 48.84375 0 L 40.796875 0 L 40.796875 -17.171875 C 40.796875 -19.285156 40.441406 -20.875 39.734375 -21.9375 C 39.023438 -23 37.910156 -23.53125 36.390625 -23.53125 C 34.421875 -23.53125 32.953125 -22.828125 31.984375 -21.421875 C 31.015625 -20.023438 30.53125 -17.800781 30.53125 -14.75 Z M 30.53125 0 "/></g></g></g><g fill="#545454" fill-opacity="1"><g transform="translate(287.061398, 57.913918)"><g><path d="M 16.375 -24.234375 C 14.675781 -24.234375 13.34375 -23.691406 12.375 -22.609375 C 11.414062 -21.535156 10.867188 -20.007812 10.734375 -18.03125 L 21.984375 -18.03125 C 21.941406 -20.007812 21.421875 -21.535156 20.421875 -22.609375 C 19.421875 -23.691406 18.070312 -24.234375 16.375 -24.234375 Z M 17.515625 0.53125 C 12.773438 0.53125 9.070312 -0.773438 6.40625 -3.390625 C 3.75 -6.003906 2.421875 -9.703125 2.421875 -14.484375 C 2.421875 -19.410156 3.648438 -23.21875 6.109375 -25.90625 C 8.578125 -28.601562 11.984375 -29.953125 16.328125 -29.953125 C 20.484375 -29.953125 23.71875 -28.765625 26.03125 -26.390625 C 28.34375 -24.023438 29.5 -20.757812 29.5 -16.59375 L 29.5 -12.703125 L 10.546875 -12.703125 C 10.628906 -10.421875 11.300781 -8.640625 12.5625 -7.359375 C 13.820312 -6.078125 15.59375 -5.4375 17.875 -5.4375 C 19.644531 -5.4375 21.316406 -5.617188 22.890625 -5.984375 C 24.472656 -6.359375 26.125 -6.945312 27.84375 -7.75 L 27.84375 -1.546875 C 26.4375 -0.847656 24.9375 -0.328125 23.34375 0.015625 C 21.75 0.359375 19.804688 0.53125 17.515625 0.53125 Z M 17.515625 0.53125 "/></g></g></g><g fill="#545454" fill-opacity="1"><g transform="translate(318.865899, 57.913918)"><g><path d="M 24.71875 -8.734375 C 24.71875 -5.710938 23.671875 -3.410156 21.578125 -1.828125 C 19.484375 -0.253906 16.347656 0.53125 12.171875 0.53125 C 10.035156 0.53125 8.210938 0.382812 6.703125 0.09375 C 5.191406 -0.195312 3.78125 -0.625 2.46875 -1.1875 L 2.46875 -7.8125 C 3.957031 -7.101562 5.632812 -6.515625 7.5 -6.046875 C 9.375 -5.578125 11.019531 -5.34375 12.4375 -5.34375 C 15.34375 -5.34375 16.796875 -6.179688 16.796875 -7.859375 C 16.796875 -8.492188 16.601562 -9.003906 16.21875 -9.390625 C 15.832031 -9.785156 15.164062 -10.234375 14.21875 -10.734375 C 13.269531 -11.234375 12.007812 -11.816406 10.4375 -12.484375 C 8.175781 -13.429688 6.515625 -14.304688 5.453125 -15.109375 C 4.390625 -15.921875 3.617188 -16.847656 3.140625 -17.890625 C 2.660156 -18.929688 2.421875 -20.21875 2.421875 -21.75 C 2.421875 -24.351562 3.429688 -26.367188 5.453125 -27.796875 C 7.472656 -29.234375 10.34375 -29.953125 14.0625 -29.953125 C 17.601562 -29.953125 21.046875 -29.175781 24.390625 -27.625 L 21.984375 -21.84375 C 20.503906 -22.476562 19.125 -22.992188 17.84375 -23.390625 C 16.570312 -23.796875 15.269531 -24 13.9375 -24 C 11.570312 -24 10.390625 -23.359375 10.390625 -22.078125 C 10.390625 -21.359375 10.769531 -20.734375 11.53125 -20.203125 C 12.289062 -19.679688 13.957031 -18.90625 16.53125 -17.875 C 18.832031 -16.945312 20.515625 -16.078125 21.578125 -15.265625 C 22.648438 -14.460938 23.441406 -13.535156 23.953125 -12.484375 C 24.460938 -11.429688 24.71875 -10.179688 24.71875 -8.734375 Z M 24.71875 -8.734375 "/></g></g></g></g></g></svg>